<svg width="1000" height="1000" viewBox="0 0 1000 1000" xmlns="http://www.w3.org/2000/svg"><defs><linearGradient id="background" x1="0%" y1="0%" x2="0%" y2="100%"><stop offset="0%" style="stop-color:#F5F5DC;stop-opacity:1" /><stop offset="50%" style="stop-color:#D2B48C;stop-opacity:1" /><stop offset="100%" style="stop-color:#DEB887;stop-opacity:1" /></linearGradient><filter id="glow" x="-50%" y="-50%" width="200%" height="200%"><feGaussianBlur stdDeviation="3" result="coloredBlur"/><feMerge><feMergeNode in="coloredBlur"/><feMergeNode in="SourceGraphic"/></feMerge></filter><filter id="soften" x="-20%" y="-20%" width="140%" height="140%"><feGaussianBlur stdDeviation="1" result="blur"/><feMerge><feMergeNode in="blur"/><feMergeNode in="SourceGraphic"/></feMerge></filter><filter id="texture" x="-10%" y="-10%" width="120%" height="120%"><feTurbulence baseFrequency="0.9" numOctaves="4" result="noise"/><feDisplacementMap in="SourceGraphic" in2="noise" scale="2"/></filter><radialGradient id="sunGlow" cx="50%" cy="50%" r="50%"><stop offset="0%" style="stop-color:#FFD700;stop-opacity:0.3" /><stop offset="100%" style="stop-color:#FFD700;stop-opacity:0" /></radialGradient><radialGradient id="moonGlow" cx="50%" cy="50%" r="50%"><stop offset="0%" style="stop-color:#E6E6FA;stop-opacity:0.4" /><stop offset="100%" style="stop-color:#E6E6FA;stop-opacity:0" /></radialGradient></defs><rect width="1000" height="1000" fill="url(#background)" /><path d="M 0,950 L 1,950 L 2,950 L 3,950 L 4,950 L 5,950 L 6,950 L 7,950 L 8,950 L 9,950 L 10,950 L 11,950 L 12,950 L 13,950 L 14,950 L 15,950 L 16,950 L 17,950 L 18,950 L 19,950 L 20,950 L 21,950 L 22,950 L 23,950 L 24,950 L 25,950 L 26,950 L 27,950 L 28,950 L 29,950 L 30,950 L 31,950 L 32,950 L 33,950 L 34,950 L 35,950 L 36,950 L 37,950 L 38,950 L 39,950 L 40,950 L 41,950 L 42,950 L 43,950 L 44,950 L 45,950 L 46,950 L 47,950 L 48,950 L 49,950 L 50,950 L 51,950 L 52,950 L 53,950 L 54,950 L 55,950 L 56,950 L 57,950 L 58,950 L 59,950 L 60,950 L 61,950 L 62,950 L 63,950 L 64,950 L 65,950 L 66,950 L 67,950 L 68,950 L 69,950 L 70,950 L 71,950 L 72,950 L 73,950 L 74,950 L 75,950 L 76,950 L 77,950 L 78,950 L 79,950 L 80,950 L 81,950 L 82,950 L 83,950 L 84,950 L 85,950 L 86,950 L 87,950 L 88,950 L 89,950 L 90,950 L 91,950 L 92,950 L 93,950 L 94,950 L 95,950 L 96,950 L 97,881.9940158192284 L 98,880.2601826570738 L 99,878.4922859928284 L 100,876.6899700442503 L 101,874.8528848621174 L 102,872.9806866782102 L 103,871.0730382576044 L 104,869.1296092550748 L 105,867.1500765754081 L 106,865.1341247374098 L 107,863.0814462413828 L 108,860.9917419398481 L 109,858.8647214112636 L 110,856.7001033364966 L 111,854.4976158777864 L 112,852.2569970599363 L 113,849.9779951534549 L 114,847.6603690593647 L 115,845.3038886953885 L 116,842.9083353832077 L 117,840.47350223649 L 118,837.9991945493663 L 119,835.4852301850343 L 120,832.931439964158 L 121,830.3376680527233 L 122,827.7037723490031 L 123,825.0296248692821 L 124,822.3151121319785 L 125,819.5601355398001 L 126,816.7646117595607 L 127,813.9284730992805 L 128,811.0516678821884 L 129,808.1341608172361 L 130,805.1759333657336 L 131,802.1769841037071 L 132,799.1373290795796 L 133,796.0570021667666 L 134,792.9360554107825 L 135,789.7745593704432 L 136,786.5726034527512 L 137,783.3302962410507 L 138,780.0477658160314 L 139,776.725160069164 L 140,773.3626470081485 L 141,769.9604150539548 L 142,766.5186733290356 L 143,763.0376519362943 L 144,759.5176022283886 L 145,755.9587970669551 L 146,752.3615310713401 L 147,748.7261208564262 L 148,745.0529052591456 L 149,741.3422455532784 L 150,737.5945256521325 L 151,733.810152298713 L 152,729.9895552429899 L 153,726.13318740588 L 154,722.2415250295675 L 155,718.3150678137896 L 156,714.3543390377273 L 157,710.3598856671454 L 158,706.3322784464342 L 159,702.2721119752189 L 160,698.180004769205 L 161,694.056599304948 L 162,689.9025620482365 L 163,685.7185834657955 L 164,681.5053780200273 L 165,677.2636841465186 L 166,672.9942642140556 L 167,668.6979044669031 L 168,664.3754149491167 L 169,660.027629410672 L 170,655.6554051952082 L 171,651.2596231092016 L 172,646.8411872723971 L 173,642.4010249493439 L 174,637.9400863618977 L 175,633.4593444825675 L 176,628.9597948086059 L 177,624.4424551167548 L 178,619.9083651985793 L 179,615.3585865763428 L 180,610.7942021993902 L 181,606.2163161210293 L 182,601.6260531559176 L 183,597.0245585179837 L 184,592.4129974389277 L 185,587.7925547673722 L 186,583.1644345487466 L 187,578.5298595860181 L 188,573.8900709813931 L 189,569.246327659142 L 190,564.5999058697145 L 191,559.9520986753389 L 192,555.3042154173156 L 193,550.6575811652365 L 194,546.0135361483864 L 195,541.3734351695973 L 196,536.7386470018548 L 197,532.110553767967 L 198,527.490550303638 L 199,522.8800435042976 L 200,518.2804516560676 L 201,513.6932037512589 L 202,509.1197387888189 L 203,504.56150506016314 L 204,500.0199594208483 L 205,495.4965665485588 L 206,490.9927981879035 L 207,486.51013238252995 L 208,482.0500526950882 L 209,477.61404741558874 L 210,473.2036087587191 L 211,468.82023205069885 L 212,464.4654149062674 L 213,460.1406563964194 L 214,455.8474562075091 L 215,451.58731379236906 L 216,447.36172751409333 L 217,443.1721937831552 L 218,439.02020618853845 L 219,434.9072546235725 L 220,430.8348244071765 L 221,426.80439540122256 L 222,422.81744112474337 L 223,418.8754278657135 L 224,414.9798137911463 L 225,411.1320480562516 L 226,407.3335699134094 L 227,403.58580782171714 L 228,399.89017855787756 L 229,396.2480863291929 L 230,392.660921889439 L 231,389.13006165839283 L 232,385.6568668457894 L 233,382.24268258048323 L 234,378.8888370455934 L 235,375.5966406204029 L 236,372.3673850297904 L 237,369.20234250195983 L 238,366.1027649352385 L 239,363.06988307470135 L 240,360.1049056993817 L 241,357.209018820815 L 242,354.3833848936598 L 243,351.62914203912965 L 244,348.9474032819612 L 245,346.33925580163293 L 246,343.80576019854095 L 247,341.3479497758219 L 248,338.96682983750463 L 249,336.6633770036583 L 250,334.4385385431867 L 251,332.2932317249109 L 252,330.22834318755736 L 253,328.2447283292612 L 254,326.34321071716977 L 255,324.52458151771975 L 256,322.78959894813636 L 257,321.13898774968914 L 258,319.5734386832154 L 259,318.09360804740334 L 260,316.7001172203053 L 261,315.3935522245281 L 262,314.1744633165288 L 263,313.0433646004159 L 264,312.00073366663867 L 265,311.04701125591623 L 266,310.1826009487421 L 267,309.40786888076514 L 268,308.7231434843334 L 269,308.12871525645085 L 270,307.62483655338133 L 271,307.2117214121 L 272,306.88954539876954 L 273,306.65844548439236 L 274,306.5185199477619 L 275,306.46982830580714 L 276,306.51239127140366 L 277,306.64619073868846 L 278,306.8711697958963 L 279,307.18723276570347 L 280,307.59424527303986 L 281,308.09203434030064 L 282,308.6803885098643 L 283,309.35905799379543 L 284,310.1277548505833 L 285,310.9861531887418 L 286,311.9338893970681 L 287,312.970562401335 L 288,314.0957339471587 L 289,315.30892890876794 L 290,316.60963562336565 L 291,317.9973062507564 L 292,319.47135715788465 L 293,321.0311693279057 L 294,322.67608879338945 L 295,324.40542709323074 L 296,326.21846175282053 L 297,328.11443678700914 L 298,330.09256322537055 L 299,332.15201965925814 L 300,334.2919528101203 L 301,336.5114781185247 L 302,338.80968035332444 L 303,341.1856142403775 L 304,343.6383051102133 L 305,346.16674956403097 L 306,348.76991615738507 L 307,351.4467461009141 L 308,354.19615397744155 L 309,357.0170284747711 L 310,359.90823313348506 L 311,362.8686071090416 L 312,365.8969659474559 L 313,368.9921023738426 L 314,372.1527870930829 L 315,375.37776960187705 L 316,378.6657790114323 L 317,382.01552488002847 L 318,385.4256980547035 L 319,388.89497152128854 L 320,392.4220012620268 L 321,396.0054271199988 L 322,399.6438736695843 L 323,403.33595109217856 L 324,407.0802560563932 L 325,410.87537260196063 L 326,414.7198730265694 L 327,418.612318774861 L 328,422.5512613288148 L 329,426.53524309876116 L 330,430.56279831425786 L 331,434.632453914082 L 332,438.7427304345832 L 333,442.89214289566377 L 334,447.0792016836476 L 335,451.30241343032213 L 336,455.56028188743153 L 337,459.8513087959236 L 338,464.1739947492564 L 339,468.52684005008155 L 340,472.90834555964176 L 341,477.31701353922006 L 342,481.7513484830066 L 343,486.2098579417494 L 344,490.6910533365825 L 345,495.1934507624289 L 346,499.7155717804032 L 347,504.2559441986444 L 348,508.81310284103307 L 349,513.3855903032654 L 350,517.971957695765 L 351,522.5707653729469 L 352,527.1805836483488 L 353,531.7999934951821 L 354,536.4275872318558 L 355,541.0619691920645 L 356,545.7017563790332 L 357,550.3455791035498 L 358,554.9920816054184 L 359,559.6399226580022 L 360,564.2877761555367 L 361,568.9343316829157 L 362,573.5782950676767 L 363,578.2183889139282 L 364,582.8533531179885 L 365,587.481945365518 L 366,592.1029416099586 L 367,596.715136532103 L 368,601.3173439806476 L 369,605.9083973935974 L 370,610.4871502004123 L 371,615.0524762048085 L 372,619.6032699481432 L 373,624.1384470533362 L 374,628.656944549298 L 375,633.1577211758568 L 376,637.6397576691911 L 377,642.1020570278029 L 378,646.5436447590708 L 379,650.9635691064602 L 380,655.3609012574641 L 381,659.7347355323844 L 382,664.0841895540711 L 383,668.4084043987548 L 384,672.7065447281265 L 385,676.977798902836 L 386,681.2213790775915 L 387,685.4365212780612 L 388,689.6224854597948 L 389,693.7785555493913 L 390,697.9040394681596 L 391,701.998269138526 L 392,706.0606004734614 L 393,710.0904133492098 L 394,714.0871115616096 L 395,718.0501227663183 L 396,721.9788984032505 L 397,725.8729136055633 L 398,729.7316670935203 L 399,733.5546810535785 L 400,737.3415010030599 L 401,736.9490618950947 L 402,733.5674098953781 L 403,730.1632594723516 L 404,726.7372297571767 L 405,723.2899589539448 L 406,719.8221042721191 L 407,716.3343418443501 L 408,712.8273666295099 L 409,709.3018923008011 L 410,705.7586511188139 L 411,702.1983937894083 L 412,698.6218893063233 L 413,695.0299247784187 L 414,691.4233052414781 L 415,687.8028534545074 L 416,684.1694096804821 L 417,680.523831451517 L 418,676.8669933184324 L 419,673.199786584722 L 420,669.5231190249337 L 421,665.8379145874945 L 422,662.1451130820216 L 423,658.445669851187 L 424,654.740555427208 L 425,651.030755173063 L 426,647.3172689085384 L 427,643.6011105212388 L 428,639.8833075627015 L 429,636.1649008297766 L 430,632.4469439314519 L 431,628.7305028413123 L 432,625.0166554358515 L 433,621.3064910188561 L 434,617.6011098321114 L 435,613.9016225526857 L 436,610.2091497770743 L 437,606.524821492492 L 438,602.8497765356245 L 439,599.1851620391678 L 440,595.5321328664902 L 441,591.8918510347785 L 442,588.2654851270358 L 443,584.6542096933249 L 444,581.0592046416482 L 445,577.4816546188904 L 446,573.9227483822453 L 447,570.3836781615803 L 448,566.8656390131835 L 449,563.3698281653747 L 450,559.8974443564573 L 451,556.4496871655062 L 452,553.0277563365004 L 453,549.6328510963147 L 454,546.266169467104 L 455,542.9289075736147 L 456,539.622258945972 L 457,536.3474138185023 L 458,533.1055584251579 L 459,529.897874292114 L 460,526.7255375281229 L 461,523.5897181132159 L 462,520.49157918634 L 463,517.4322763325393 L 464,514.4129568702785 L 465,511.43475913952295 L 466,508.498811791186 L 467,505.60623307856076 L 468,502.7581301513535 L 469,499.95559835294114 L 470,497.1997205214709 L 471,494.4915662954247 L 472,491.8321914242694 L 473,489.2226370848107 L 474,486.66392920386966 L 475,484.157077787895 L 476,481.7030762601249 L 477,479.30290080590345 L 478,476.95750972675575 L 479,474.6678428038169 L 480,472.4348206712093 L 481,470.2593441999486 L 482,468.1422938929554 L 483,466.08452929174354 L 484,464.0868883953395 L 485,462.1501870919867 L 486,460.27521860417033 L 487,458.46275294749364 L 488,456.71353640391925 L 489,455.0282910098831 L 490,453.40771405976784 L 491,451.85247762521976 L 492,450.36322809076546 L 493,448.9405857061837 L 494,447.5851441560633 L 495,446.29747014696545 L 496,445.0781030125924 L 497,443.9275543373477 L 498,442.8463075986571 L 499,441.8348178283964 L 500,440.8935112937629 L 501,440.02278519789996 L 502,439.2230074005716 L 503,438.4945161591601 L 504,437.8376198902437 L 505,437.25259695198736 L 506,436.7396954475654 L 507,436.29913304980494 L 508,435.93109684722924 L 509,435.63574321164845 L 510,435.41319768743335 L 511,435.26355490257845 L 512,435.1868785016444 L 513,435.1832011006451 L 514,435.2525242639265 L 515,435.39481850305697 L 516,435.61002329773225 L 517,435.89804713867466 L 518,436.2587675924823 L 519,436.6920313883646 L 520,437.1976545266799 L 521,437.77542240916387 L 522,438.42508999072356 L 523,439.1463819526444 L 524,439.93899289703876 L 525,440.8025875623455 L 526,441.7368010596663 L 527,442.74123912970515 L 528,443.815478420059 L 529,444.95906678258615 L 530,446.1715235905592 L 531,447.45234007529206 L 532,448.80097968191035 L 533,450.2168784439176 L 534,451.6994453761909 L 535,453.2480628860219 L 536,454.8620872018043 L 537,456.540848818951 L 538,458.2836529626077 L 539,460.0897800667163 L 540,461.95848626896566 L 541,463.8890039211533 L 542,465.8805421144674 L 543,467.9322872191872 L 544,470.04340343828596 L 545,472.2130333744099 L 546,474.440298609694 L 547,476.724300297868 L 548,479.0641197680936 L 549,481.4588191399648 L 550,483.90744194909763 L 551,486.40901378272446 L 552,488.96254292470445 L 553,491.5670210093508 L 554,494.22142368347585 L 555,496.924711276045 L 556,499.6758294748308 L 557,502.4737100094476 L 558,505.3172713401566 L 559,508.2054193518172 L 560,511.1370480523644 L 561,514.1110402751933 L 562,517.1262683848286 L 563,520.1815949852598 L 564,523.2758736303201 L 565,526.4079495354979 L 566,529.5766602905635 L 567,532.7808365724034 L 568,536.0193028574533 L 569,539.2908781331324 L 570,542.5943766076836 L 571,545.9286084178257 L 572,549.292380333643 L 573,552.6844964601287 L 574,556.1037589348244 L 575,559.5489686209869 L 576,563.018925795742 L 577,566.5124308326804 L 578,570.0282848783687 L 579,573.5652905222532 L 580,577.1222524594532 L 581,580.6979781459456 L 582,584.2912784456555 L 583,587.900968268983 L 584,591.525867202309 L 585,595.1648001280324 L 586,598.8165978347074 L 587,602.4800976168651 L 588,606.1541438641156 L 589,609.8375886391436 L 590,613.5292922442206 L 591,617.2281237758795 L 592,620.9329616674084 L 593,624.6426942188345 L 594,628.3562201140903 L 595,632.0724489250639 L 596,635.7903016022597 L 597,639.5087109518007 L 598,643.2266220985334 L 599,646.9429929350017 L 600,650.6567945560795 L 601,654.3670116790636 L 602,658.0726430490527 L 603,661.7727018294445 L 604,665.4662159774089 L 605,669.1522286042059 L 606,672.8297983202389 L 607,676.4979995647432 L 608,680.1559229200325 L 609,683.8026754102402 L 610,687.437380784508 L 611,691.0591797845889 L 612,694.6672303968505 L 613,698.2607080886802 L 614,701.8388060293041 L 615,705.4007352950529 L 616,708.9457250591195 L 617,712.4730227658683 L 618,715.9818942897723 L 619,719.471624079062 L 620,722.9415152841945 L 621,726.3908898712539 L 622,729.8190887204163 L 623,733.2254717096137 L 624,736.6094177835598 L 625,739.9703250083002 L 626,743.3076106114594 L 627,746.6207110083851 L 628,749.9090818143794 L 629,753.1721978432348 L 630,756.40955309229 L 631,759.6206607142414 L 632,762.8050529759462 L 633,765.9622812044681 L 634,769.0919157206209 L 635,772.193545760276 L 636,775.2667793837087 L 637,778.311243373257 L 638,781.3265831195877 L 639,784.3124624968566 L 640,787.2685637270638 L 641,790.1945872339071 L 642,793.0902514864454 L 643,795.9552928328817 L 644,798.7894653247874 L 645,801.5925405320858 L 646,804.3643073491215 L 647,807.1045717921442 L 648,809.8131567885325 L 649,812.4899019580951 L 650,815.1346633867774 L 651,817.7473133931144 L 652,820.3277402877566 L 653,822.8758481264135 L 654,825.3915564565452 L 655,827.874800058139 L 656,830.3255286789038 L 657,832.7437067642195 L 658,835.1293131821697 L 659,837.4823409439905 L 660,839.8027969202608 L 661,842.0907015531619 L 662,844.3460885651302 L 663,846.5690046642176 L 664,848.7595092464816 L 665,850.9176740957157 L 666,853.043583080828 L 667,855.1373318511717 L 668,857.1990275301312 L 669,859.2287884072559 L 670,861.226743629233 L 671,863.1930328899846 L 672,865.1278061201685 L 673,867.0312231763596 L 674,868.9034535301759 L 675,870.7446759576158 L 676,872.5550782288619 L 677,874.3348567988014 L 678,876.0842164985065 L 679,877.8033702279147 L 680,879.4925386499374 L 681,881.1519498862219 L 682,882.7818392147847 L 683,884.3824487697248 L 684,885.9540272432238 L 685,887.4968295900246 L 686,889.0111167345823 L 687,890.4971552810666 L 688,891.9552172263931 L 689,893.3855796764481 L 690,894.7885245656713 L 691,950 L 692,950 L 693,950 L 694,950 L 695,950 L 696,950 L 697,950 L 698,950 L 699,950 L 700,950 L 701,950 L 702,950 L 703,950 L 704,950 L 705,950 L 706,950 L 707,950 L 708,950 L 709,950 L 710,950 L 711,950 L 712,950 L 713,950 L 714,950 L 715,950 L 716,950 L 717,950 L 718,950 L 719,950 L 720,950 L 721,950 L 722,950 L 723,950 L 724,950 L 725,950 L 726,950 L 727,950 L 728,950 L 729,950 L 730,950 L 731,950 L 732,950 L 733,950 L 734,950 L 735,950 L 736,950 L 737,950 L 738,950 L 739,950 L 740,950 L 741,950 L 742,950 L 743,950 L 744,950 L 745,950 L 746,950 L 747,950 L 748,950 L 749,950 L 750,950 L 751,950 L 752,950 L 753,950 L 754,950 L 755,950 L 756,950 L 757,950 L 758,950 L 759,950 L 760,950 L 761,950 L 762,950 L 763,950 L 764,950 L 765,950 L 766,950 L 767,950 L 768,950 L 769,950 L 770,950 L 771,950 L 772,950 L 773,950 L 774,950 L 775,950 L 776,950 L 777,950 L 778,950 L 779,950 L 780,950 L 781,950 L 782,950 L 783,950 L 784,950 L 785,950 L 786,950 L 787,950 L 788,950 L 789,950 L 790,950 L 791,950 L 792,950 L 793,950 L 794,950 L 795,950 L 796,950 L 797,950 L 798,950 L 799,950 L 800,950 L 801,950 L 802,950 L 803,950 L 804,950 L 805,950 L 806,950 L 807,950 L 808,950 L 809,950 L 810,950 L 811,950 L 812,950 L 813,950 L 814,950 L 815,950 L 816,950 L 817,950 L 818,950 L 819,950 L 820,950 L 821,950 L 822,950 L 823,950 L 824,950 L 825,950 L 826,950 L 827,950 L 828,950 L 829,950 L 830,950 L 831,950 L 832,950 L 833,950 L 834,950 L 835,950 L 836,950 L 837,950 L 838,950 L 839,950 L 840,950 L 841,950 L 842,950 L 843,950 L 844,950 L 845,950 L 846,950 L 847,950 L 848,950 L 849,950 L 850,950 L 851,950 L 852,950 L 853,950 L 854,950 L 855,950 L 856,950 L 857,950 L 858,950 L 859,950 L 860,950 L 861,950 L 862,950 L 863,950 L 864,950 L 865,950 L 866,950 L 867,950 L 868,950 L 869,950 L 870,950 L 871,950 L 872,950 L 873,950 L 874,950 L 875,950 L 876,950 L 877,950 L 878,950 L 879,950 L 880,950 L 881,950 L 882,950 L 883,950 L 884,950 L 885,950 L 886,950 L 887,950 L 888,950 L 889,950 L 890,950 L 891,950 L 892,950 L 893,950 L 894,950 L 895,950 L 896,950 L 897,950 L 898,950 L 899,950 L 900,950 L 901,950 L 902,950 L 903,950 L 904,950 L 905,950 L 906,950 L 907,950 L 908,950 L 909,950 L 910,950 L 911,950 L 912,950 L 913,950 L 914,950 L 915,950 L 916,950 L 917,950 L 918,950 L 919,950 L 920,950 L 921,950 L 922,950 L 923,950 L 924,950 L 925,950 L 926,950 L 927,950 L 928,950 L 929,950 L 930,950 L 931,950 L 932,950 L 933,950 L 934,950 L 935,950 L 936,950 L 937,950 L 938,950 L 939,950 L 940,950 L 941,950 L 942,950 L 943,950 L 944,950 L 945,950 L 946,950 L 947,950 L 948,950 L 949,950 L 950,950 L 951,950 L 952,950 L 953,950 L 954,950 L 955,950 L 956,950 L 957,950 L 958,950 L 959,950 L 960,950 L 961,950 L 962,950 L 963,950 L 964,950 L 965,950 L 966,950 L 967,950 L 968,950 L 969,950 L 970,950 L 971,950 L 972,950 L 973,950 L 974,950 L 975,950 L 976,950 L 977,950 L 978,950 L 979,950 L 980,950 L 981,950 L 982,950 L 983,950 L 984,950 L 985,950 L 986,950 L 987,950 L 988,950 L 989,950 L 990,950 L 991,950 L 992,950 L 993,950 L 994,950 L 995,950 L 996,950 L 997,950 L 998,950 L 999,950 L 1000,1000 L 0,1000 Z" fill="#A0826D" opacity="0.1" /></svg>