<svg width="1000" height="1000" viewBox="0 0 1000 1000" xmlns="http://www.w3.org/2000/svg"><defs><linearGradient id="background" x1="0%" y1="0%" x2="0%" y2="100%"><stop offset="0%" style="stop-color:#E8E8E8;stop-opacity:1" /><stop offset="50%" style="stop-color:#D3D3D3;stop-opacity:1" /><stop offset="100%" style="stop-color:#A8A8A8;stop-opacity:1" /></linearGradient><filter id="glow" x="-50%" y="-50%" width="200%" height="200%"><feGaussianBlur stdDeviation="3" result="coloredBlur"/><feMerge><feMergeNode in="coloredBlur"/><feMergeNode in="SourceGraphic"/></feMerge></filter><filter id="soften" x="-20%" y="-20%" width="140%" height="140%"><feGaussianBlur stdDeviation="1" result="blur"/><feMerge><feMergeNode in="blur"/><feMergeNode in="SourceGraphic"/></feMerge></filter><filter id="texture" x="-10%" y="-10%" width="120%" height="120%"><feTurbulence baseFrequency="0.9" numOctaves="4" result="noise"/><feDisplacementMap in="SourceGraphic" in2="noise" scale="2"/></filter><radialGradient id="sunGlow" cx="50%" cy="50%" r="50%"><stop offset="0%" style="stop-color:#FFD700;stop-opacity:0.3" /><stop offset="100%" style="stop-color:#FFD700;stop-opacity:0" /></radialGradient><radialGradient id="moonGlow" cx="50%" cy="50%" r="50%"><stop offset="0%" style="stop-color:#E6E6FA;stop-opacity:0.4" /><stop offset="100%" style="stop-color:#E6E6FA;stop-opacity:0" /></radialGradient></defs><rect width="1000" height="1000" fill="url(#background)" /><path d="M 0,950 L 1,950 L 2,950 L 3,950 L 4,950 L 5,950 L 6,950 L 7,950 L 8,950 L 9,950 L 10,950 L 11,950 L 12,950 L 13,950 L 14,950 L 15,950 L 16,950 L 17,950 L 18,950 L 19,950 L 20,950 L 21,950 L 22,950 L 23,950 L 24,950 L 25,950 L 26,950 L 27,950 L 28,950 L 29,950 L 30,950 L 31,950 L 32,950 L 33,950 L 34,950 L 35,950 L 36,950 L 37,950 L 38,950 L 39,950 L 40,950 L 41,950 L 42,950 L 43,950 L 44,950 L 45,950 L 46,950 L 47,950 L 48,950 L 49,950 L 50,950 L 51,950 L 52,950 L 53,950 L 54,950 L 55,950 L 56,950 L 57,950 L 58,950 L 59,950 L 60,950 L 61,950 L 62,950 L 63,950 L 64,950 L 65,950 L 66,950 L 67,950 L 68,950 L 69,950 L 70,950 L 71,950 L 72,950 L 73,950 L 74,950 L 75,950 L 76,950 L 77,950 L 78,950 L 79,950 L 80,950 L 81,950 L 82,950 L 83,950 L 84,950 L 85,950 L 86,950 L 87,950 L 88,950 L 89,950 L 90,950 L 91,950 L 92,950 L 93,950 L 94,950 L 95,950 L 96,950 L 97,884.8275984934272 L 98,883.1660083796957 L 99,881.4717740764605 L 100,879.74455462574 L 101,877.9840146595292 L 102,876.1898247332848 L 103,874.3616616635375 L 104,872.4992088694466 L 105,870.6021567180994 L 106,868.6702028733511 L 107,866.7030526479919 L 108,864.700419359021 L 109,862.6620246857943 L 110,860.5875990308092 L 111,858.4768818828786 L 112,856.329622182439 L 113,854.1455786887276 L 114,851.9245203485578 L 115,849.666226666414 L 116,847.370488075574 L 117,845.0371063099697 L 118,842.665894776476 L 119,840.2566789273245 L 120,837.8092966323181 L 121,835.3235985505265 L 122,832.7994485011279 L 123,830.236723833062 L 124,827.635315793146 L 125,824.9951298923083 L 126,822.3160862695789 L 127,819.5981200534771 L 128,816.8411817204307 L 129,814.0452374498512 L 130,811.2102694754947 L 131,808.3362764327193 L 132,805.4232737012637 L 133,802.4712937431513 L 134,799.4803864353332 L 135,796.4506193966747 L 136,793.3820783088865 L 137,790.274867231007 L 138,787.1291089070301 L 139,783.9449450662821 L 140,780.7225367161423 L 141,777.4620644267067 L 142,774.1637286069924 L 143,770.8277497722821 L 144,767.4543688022057 L 145,764.0438471891653 L 146,760.5964672767009 L 147,757.1125324874083 L 148,753.5923675400146 L 149,750.0363186552252 L 150,746.4447537499603 L 151,742.8180626195999 L 152,739.1566571078654 L 153,735.4609712639683 L 154,731.7314614866689 L 155,727.9686066548817 L 156,724.1729082444887 L 157,720.3448904310143 L 158,716.4851001778328 L 159,712.5941073095847 L 160,708.6725045704881 L 161,704.7209076672418 L 162,700.7399552962266 L 163,696.7303091547207 L 164,692.6926539358594 L 165,688.6276973070803 L 166,684.5361698718033 L 167,680.4188251141154 L 168,676.2764393262369 L 169,672.1098115185607 L 170,667.9197633120746 L 171,663.7071388129848 L 172,659.4728044693804 L 173,655.2176489097878 L 174,650.9425827634852 L 175,646.6485384624605 L 176,642.3364700249141 L 177,638.0073528202233 L 178,633.6621833153051 L 179,629.3019788023284 L 180,624.927777107749 L 181,620.540636282653 L 182,616.1416342744211 L 183,611.7318685797343 L 184,607.3124558789723 L 185,602.8845316520649 L 186,598.4492497758822 L 187,594.0077821032673 L 188,589.5613180238352 L 189,585.1110640066778 L 190,580.658243125143 L 191,576.2040945638664 L 192,571.7498731082608 L 193,567.2968486166851 L 194,562.8463054755368 L 195,558.3995420375308 L 196,553.9578700434441 L 197,549.522614027635 L 198,545.0951107076531 L 199,540.6767083582853 L 200,536.2687661703982 L 201,531.8726535949565 L 202,527.489749672618 L 203,523.121442349323 L 204,518.769127778313 L 205,514.4342096090355 L 206,510.1180982634075 L 207,505.82221019992454 L 208,501.5479671661262 L 209,497.2967954399392 L 210,493.0701250604392 L 211,488.8693890485864 L 212,484.6960226185063 L 213,480.55146237990186 L 214,476.4371455321962 L 215,472.3545090510204 L 216,468.30498886767276 L 217,464.29001904219035 L 218,460.3110309306827 L 219,456.3694523475903 L 220,452.4667067235441 L 221,448.60421225950495 L 222,444.783381077879 L 223,441.0056183713088 L 224,437.27232154984847 L 225,433.58487938724113 L 226,429.9446711670173 L 227,426.35306582914563 L 228,422.811421117966 L 229,419.3210827321433 L 230,415.8833834773791 L 231,412.4996424226265 L 232,409.1711640605482 L 233,405.89923747296314 L 234,402.68513550202704 L 235,399.5301139278861 L 236,396.43541065354907 L 237,393.4022448977115 L 238,390.43181639627016 L 239,387.52530461325546 L 240,384.6838679619075 L 241,381.9086430366143 L 242,379.20074385642397 L 243,376.5612611208327 L 244,373.9912614785461 L 245,371.49178680989814 L 246,369.06385352360167 L 247,366.708451868496 L 248,364.4265452609419 L 249,362.21906962850585 L 250,360.086932770554 L 251,358.031013736373 L 252,356.05216222140916 L 253,354.1511979822086 L 254,352.328910270621 L 255,350.5860572878147 L 256,348.9233656586307 L 257,347.3415299267855 L 258,345.8412120714148 L 259,344.42304104542814 L 260,343.08761233612586 L 261,341.8354875485061 L 262,340.66719401167336 L 263,339.5832244087319 L 264,338.5840364305287 L 265,337.67005245358644 L 266,336.84165924254444 L 267,336.09920767739993 L 268,335.4430125058194 L 269,334.8733521207654 L 270,334.3904683636571 L 271,333.9945663532625 L 272,333.68581434048747 L 273,333.4643435892093 L 274,333.33024828327177 L 275,333.28358545973185 L 276,333.3243749684285 L 277,333.45259945790986 L 278,333.6682043877339 L 279,333.9710980671325 L 280,334.36115171999654 L 281,334.8381995761215 L 282,335.4020389886199 L 283,336.0524305773873 L 284,336.78909839847563 L 285,337.61173013921086 L 286,338.51997733885696 L 287,339.5134556346127 L 288,340.5917450326938 L 289,341.75439020423596 L 290,343.00090080572545 L 291,344.33075182364166 L 292,345.74338394297274 L 293,347.2382039392429 L 294,348.81458509366485 L 295,350.47186763101274 L 296,352.20935917978636 L 297,354.0263352542171 L 298,355.92203975764676 L 299,357.89568550678905 L 300,359.9464547763653 L 301,362.0734998635861 L 302,364.2759436719359 L 303,366.552880313695 L 304,368.9033757306212 L 305,371.3264683321963 L 306,373.8211696508273 L 307,376.3864650133761 L 308,379.02131422838147 L 309,381.7246522883223 L 310,384.4953900862565 L 311,387.33241514616486 L 312,390.23459236631186 L 313,393.2007647749325 L 314,396.22975429753774 L 315,399.3203625351322 L 316,402.4713715526226 L 317,405.681544676694 L 318,408.94962730242423 L 319,412.2743477079016 L 320,415.65441787610905 L 321,419.08853432333217 L 322,422.57537893335166 L 323,426.11361979667106 L 324,429.70191205404353 L 325,433.33889874354566 L 326,437.0232116504624 L 327,440.7534721592418 L 328,444.5282921067809 L 329,448.3462746363127 L 330,452.2060150511638 L 331,456.1061016676619 L 332,460.0451166664756 L 333,464.0216369416778 L 334,468.034234946829 L 335,472.08147953739206 L 336,476.16193680878854 L 337,480.2741709294268 L 338,484.41674496803734 L 339,488.58822171466153 L 340,492.7871644946567 L 341,497.0121379750859 L 342,501.26170896288136 L 343,505.53444719417655 L 344,509.8289261142249 L 345,514.1437236473278 L 346,518.4774229562197 L 347,522.8286131903676 L 348,527.1958902226568 L 349,531.5778573739626 L 350,535.9731261251081 L 351,540.3803168157407 L 352,544.7980593296677 L 353,549.2249937662161 L 354,553.6597710971952 L 355,558.1010538090618 L 356,562.5475165299068 L 357,566.9978466409018 L 358,571.4507448718593 L 359,575.9049258805854 L 360,580.3591188157227 L 361,584.8120678627943 L 362,589.2625327731901 L 363,593.7092893758478 L 364,598.1511300714055 L 365,602.5868643086214 L 366,607.0153190428771 L 367,611.4353391765987 L 368,615.8457879814539 L 369,620.2455475021975 L 370,624.6335189420618 L 371,629.0086230296082 L 372,633.3698003669706 L 373,637.7160117594472 L 374,642.0462385264105 L 375,646.3594827935294 L 376,650.6547677663082 L 377,654.9311379849777 L 378,659.1876595607762 L 379,663.423420393691 L 380,667.6375303717364 L 381,671.8291215518684 L 382,675.9973483226515 L 383,680.1413875488066 L 384,684.2604386977878 L 385,688.3537239485511 L 386,692.4204882826918 L 387,696.4599995581419 L 388,700.4715485656367 L 389,704.4544490681667 L 390,708.4080378236529 L 391,712.3316745910873 L 392,716.2247421204005 L 393,720.0866461263261 L 394,723.9168152465426 L 395,727.7147009843883 L 396,731.4797776364483 L 397,735.2115422053315 L 398,738.9095142979569 L 399,742.5732360096795 L 400,746.202271794599 L 401,745.8261843161324 L 402,742.5854344830707 L 403,739.3231236610036 L 404,736.039845183961 L 405,732.7362106641971 L 406,729.4128499274475 L 407,726.0704109341689 L 408,722.7095596866136 L 409,719.3309801216011 L 410,715.9353739888634 L 411,712.5234607148496 L 412,709.0959772518931 L 413,705.6536779126513 L 414,702.1973341897499 L 415,698.7277345605695 L 416,695.2456842771287 L 417,691.7520051410372 L 418,688.2475352634976 L 419,684.7331288103586 L 420,681.2096557322283 L 421,677.6780014796823 L 422,674.1390667036039 L 423,670.5937669407209 L 424,667.0430322844077 L 425,663.487807040852 L 426,659.9290493706826 L 427,656.3677309161872 L 428,652.8048364142555 L 429,649.2413632952026 L 430,645.6783212676414 L 431,642.1167318895909 L 432,638.5576281260244 L 433,635.0020538930704 L 434,631.4510635891068 L 435,627.9057216129904 L 436,624.3671018696962 L 437,620.836287263638 L 438,617.3143691799735 L 439,613.8024469542025 L 440,610.3016273303865 L 441,606.8130239083293 L 442,603.3377565800761 L 443,599.876950956103 L 444,596.4317377815796 L 445,593.0032523431032 L 446,589.5926338663185 L 447,586.2010249048477 L 448,582.8295707209675 L 449,579.4794186584841 L 450,576.1517175082716 L 451,572.8476168669436 L 452,569.5682664891463 L 453,566.3148156339681 L 454,563.0884124059746 L 455,559.8902030913807 L 456,556.7213314898898 L 457,553.5829382427314 L 458,550.476160157443 L 459,547.4021295299426 L 460,544.3619734644512 L 461,541.3568131918319 L 462,538.3877633869092 L 463,535.4559314853502 L 464,532.5624170006836 L 465,529.7083108420428 L 466,526.8946946332198 L 467,524.1226400336208 L 468,521.3932080617137 L 469,518.7074484215686 L 470,516.0663988330764 L 471,513.4710843664486 L 472,510.9225167815914 L 473,508.4216938729436 L 474,505.96959882037515 L 475,503.5671995467327 L 476,501.2154480826197 L 477,498.9152799389908 L 478,496.6676134881409 L 479,494.4733493536578 L 480,492.33336980990885 L 481,490.2485381916174 L 482,488.2196983140823 L 483,486.24767390458754 L 484,484.3332680455337 L 485,482.47726262982064 L 486,480.6804178289966 L 487,478.94347157468144 L 488,477.26713905375595 L 489,475.65211221780464 L 490,474.0990593072775 L 491,472.60862439083553 L 492,471.1814269203169 L 493,469.81806130175937 L 494,468.519096482894 L 495,467.28507555750855 L 496,466.1165153870677 L 497,465.01390623995826 L 498,463.9777114487131 L 499,463.0083670855466 L 500,462.10628165652275 L 501,461.27183581465414 L 502,460.50538209221446 L 503,459.8072446525285 L 504,459.17771906148346 L 505,458.61707207898786 L 506,458.1255414705834 L 507,457.70333583939646 L 508,457.35063447859466 L 509,457.06758724449634 L 510,456.85431445045697 L 511,456.71090678163773 L 512,456.6374252307425 L 513,456.6339010547849 L 514,456.7003357529296 L 515,456.83670106542957 L 516,457.0429389936601 L 517,457.31896184122996 L 518,457.6646522761289 L 519,458.07986341384947 L 520,458.5644189214015 L 521,459.11811314211536 L 522,459.74071124111015 L 523,460.4319493712842 L 524,461.19153485966217 L 525,462.0191464139145 L 526,462.91443434884695 L 527,463.8770208326341 L 528,464.9065001525566 L 529,466.0024389999784 L 530,467.1643767742859 L 531,468.39182590548825 L 532,469.6842721951641 L 533,471.0411751754211 L 534,472.4619684855163 L 535,473.946060265771 L 536,475.4928335683958 L 537,477.10164678482806 L 538,478.7718340891657 L 539,480.50270589726983 L 540,482.2935493410921 L 541,484.1436287577719 L 542,486.0521861930313 L 543,488.0184419183877 L 544,490.04159496169063 L 545,492.12082365047615 L 546,494.25528616762335 L 547,496.44412111879006 L 548,498.6864481110897 L 549,500.9813683424662 L 550,503.32796520121855 L 551,505.7253048751109 L 552,508.17243696950845 L 553,510.6683951339612 L 554,513.2121976966644 L 555,515.8028483062099 L 556,518.4393365800461 L 557,521.1206387590539 L 558,523.8457183676501 L 559,526.6135268788248 L 560,529.423004383516 L 561,532.2730802637269 L 562,535.1626738687942 L 563,538.0906951942073 L 564,541.0560455623901 L 565,544.057618304852 L 566,547.0942994451233 L 567,550.1649683818866 L 568,553.268498571726 L 569,556.4037582109186 L 570,559.5696109156968 L 571,562.7649164004163 L 572,565.9885311530745 L 573,569.2393091076233 L 574,572.5161023125402 L 575,575.8177615951124 L 576,579.1431372209195 L 577,582.4910795479855 L 578,585.8604396751034 L 579,589.250070083826 L 580,592.6588252736426 L 581,596.0855623898647 L 582,599.5291418437531 L 583,602.988427924442 L 584,606.4622894022127 L 585,609.9496001226978 L 586,613.4492395915946 L 587,616.9600935494957 L 588,620.481054536444 L 589,624.011022445846 L 590,627.5489050673782 L 591,631.0936186185511 L 592,634.6440882645998 L 593,638.1992486263832 L 594,641.7580442760033 L 595,645.3194302198528 L 596,648.8823723688322 L 597,652.4458479954757 L 598,656.0088461777613 L 599,659.5703682293768 L 600,663.1294281162429 L 601,666.6850528591026 L 602,670.2362829220087 L 603,673.782172586551 L 604,677.3217903116835 L 605,680.8542190790306 L 606,684.3785567235623 L 607,687.8939162495456 L 608,691.3994261316977 L 609,694.8942306014803 L 610,698.3774899184868 L 611,701.8483806268977 L 612,705.3060957969818 L 613,708.7498452516518 L 614,712.1788557780832 L 615,715.5923713244257 L 616,718.9896531816562 L 617,722.3699801506239 L 618,725.7326486943651 L 619,729.0769730757678 L 620,732.4022854806863 L 621,735.7079361266183 L 622,738.9932933570656 L 623,742.257743721713 L 624,745.5006920425782 L 625,748.7215614662877 L 626,751.9197935026486 L 627,755.0948480497024 L 628,758.246203405447 L 629,761.3733562664333 L 630,764.4758217134446 L 631,767.5531331844813 L 632,770.6048424352817 L 633,773.6305194876153 L 634,776.629752565595 L 635,779.6021480202646 L 636,782.5473302427208 L 637,785.4649415660379 L 638,788.3546421562716 L 639,791.2161098928209 L 640,794.0490402384361 L 641,796.853146099161 L 642,799.6281576745101 L 643,802.3738222981783 L 644,805.0899042695879 L 645,807.7761846765823 L 646,810.4324612095747 L 647,813.0585479674714 L 648,815.654275255677 L 649,818.2194893765077 L 650,820.7540524123284 L 651,823.2578420017346 L 652,825.7307511091001 L 653,828.172687787813 L 654,830.5835749375226 L 655,832.9633500557165 L 656,835.3119649839495 L 657,837.6293856490436 L 658,839.9155917995793 L 659,842.1705767379909 L 660,844.3943470485832 L 661,846.5869223217802 L 662,848.7483348749165 L 663,850.8786294698751 L 664,852.9778630278781 L 665,855.0461043417276 L 666,857.0834337857934 L 667,859.0899430240395 L 668,861.0657347163757 L 669,863.0109222236202 L 670,864.9256293113484 L 671,866.8099898529019 L 672,868.6641475318281 L 673,870.4882555440113 L 674,872.2824762997518 L 675,874.0469811260484 L 676,875.781949969326 L 677,877.4875710988513 L 678,879.1640408110687 L 679,880.811563135085 L 680,882.4303495395233 L 681,884.0206186409627 L 682,885.5825959141687 L 683,887.1165134043196 L 684,888.6226094414228 L 685,890.101128357107 L 686,891.5523202039747 L 687,892.9764404776888 L 688,894.37374984196 L 689,895.7445138565961 L 690,897.0890027087684 L 691,950 L 692,950 L 693,950 L 694,950 L 695,950 L 696,950 L 697,950 L 698,950 L 699,950 L 700,950 L 701,950 L 702,950 L 703,950 L 704,950 L 705,950 L 706,950 L 707,950 L 708,950 L 709,950 L 710,950 L 711,950 L 712,950 L 713,950 L 714,950 L 715,950 L 716,950 L 717,950 L 718,950 L 719,950 L 720,950 L 721,950 L 722,950 L 723,950 L 724,950 L 725,950 L 726,950 L 727,950 L 728,950 L 729,950 L 730,950 L 731,950 L 732,950 L 733,950 L 734,950 L 735,950 L 736,950 L 737,950 L 738,950 L 739,950 L 740,950 L 741,950 L 742,950 L 743,950 L 744,950 L 745,950 L 746,950 L 747,950 L 748,950 L 749,950 L 750,950 L 751,950 L 752,950 L 753,950 L 754,950 L 755,950 L 756,950 L 757,950 L 758,950 L 759,950 L 760,950 L 761,950 L 762,950 L 763,950 L 764,950 L 765,950 L 766,950 L 767,950 L 768,950 L 769,950 L 770,950 L 771,950 L 772,950 L 773,950 L 774,950 L 775,950 L 776,950 L 777,950 L 778,950 L 779,950 L 780,950 L 781,950 L 782,950 L 783,950 L 784,950 L 785,950 L 786,950 L 787,950 L 788,950 L 789,950 L 790,950 L 791,950 L 792,950 L 793,950 L 794,950 L 795,950 L 796,950 L 797,950 L 798,950 L 799,950 L 800,950 L 801,950 L 802,950 L 803,950 L 804,950 L 805,950 L 806,950 L 807,950 L 808,950 L 809,950 L 810,950 L 811,950 L 812,950 L 813,950 L 814,950 L 815,950 L 816,950 L 817,950 L 818,950 L 819,950 L 820,950 L 821,950 L 822,950 L 823,950 L 824,950 L 825,950 L 826,950 L 827,950 L 828,950 L 829,950 L 830,950 L 831,950 L 832,950 L 833,950 L 834,950 L 835,950 L 836,950 L 837,950 L 838,950 L 839,950 L 840,950 L 841,950 L 842,950 L 843,950 L 844,950 L 845,950 L 846,950 L 847,950 L 848,950 L 849,950 L 850,950 L 851,950 L 852,950 L 853,950 L 854,950 L 855,950 L 856,950 L 857,950 L 858,950 L 859,950 L 860,950 L 861,950 L 862,950 L 863,950 L 864,950 L 865,950 L 866,950 L 867,950 L 868,950 L 869,950 L 870,950 L 871,950 L 872,950 L 873,950 L 874,950 L 875,950 L 876,950 L 877,950 L 878,950 L 879,950 L 880,950 L 881,950 L 882,950 L 883,950 L 884,950 L 885,950 L 886,950 L 887,950 L 888,950 L 889,950 L 890,950 L 891,950 L 892,950 L 893,950 L 894,950 L 895,950 L 896,950 L 897,950 L 898,950 L 899,950 L 900,950 L 901,950 L 902,950 L 903,950 L 904,950 L 905,950 L 906,950 L 907,950 L 908,950 L 909,950 L 910,950 L 911,950 L 912,950 L 913,950 L 914,950 L 915,950 L 916,950 L 917,950 L 918,950 L 919,950 L 920,950 L 921,950 L 922,950 L 923,950 L 924,950 L 925,950 L 926,950 L 927,950 L 928,950 L 929,950 L 930,950 L 931,950 L 932,950 L 933,950 L 934,950 L 935,950 L 936,950 L 937,950 L 938,950 L 939,950 L 940,950 L 941,950 L 942,950 L 943,950 L 944,950 L 945,950 L 946,950 L 947,950 L 948,950 L 949,950 L 950,950 L 951,950 L 952,950 L 953,950 L 954,950 L 955,950 L 956,950 L 957,950 L 958,950 L 959,950 L 960,950 L 961,950 L 962,950 L 963,950 L 964,950 L 965,950 L 966,950 L 967,950 L 968,950 L 969,950 L 970,950 L 971,950 L 972,950 L 973,950 L 974,950 L 975,950 L 976,950 L 977,950 L 978,950 L 979,950 L 980,950 L 981,950 L 982,950 L 983,950 L 984,950 L 985,950 L 986,950 L 987,950 L 988,950 L 989,950 L 990,950 L 991,950 L 992,950 L 993,950 L 994,950 L 995,950 L 996,950 L 997,950 L 998,950 L 999,950 L 1000,1000 L 0,1000 Z" fill="#505050" opacity="0.1" /></svg>